<?xml version="1.0"?>
<svg width="640" height="480" xmlns="http://www.w3.org/2000/svg" xmlns:svg="http://www.w3.org/2000/svg">
 <!-- Created with SVG-edit - https://github.com/SVG-Edit/svgedit-->
 <g class="layer">
  <title>Layer 1</title>
  <path d="m300.758056,140.062251c56.835023,-125.808532 279.516505,0 0,161.753827c-279.516505,-161.753827 -56.835023,-287.562359 0,-161.753827z" fill="#7f007f" id="svg_1" stroke="#000000" stroke-dasharray="null" stroke-linecap="null" stroke-linejoin="null" stroke-width="5"/>
  <polygon cx="92.5" cy="49.5" fill="#000000" id="svg_4" orient="point" point="5" points="92.5,49.5 92.5,49.5 92.5,49.5 92.5,49.5 92.5,49.5 92.5,49.5 92.5,49.5 92.5,49.5 92.5,49.5 92.5,49.5 92.5,49.5 92.5,49.5 " r="0" r2="0" shape="star" stroke-width="5" strokeWidth="5" strokecolor="none"/>
  <polygon cx="83.5" cy="49.5" fill="#000000" id="svg_5" orient="point" point="5" points="83.5,49.5 83.5,49.5 83.5,49.5 83.5,49.5 83.5,49.5 83.5,49.5 83.5,49.5 83.5,49.5 83.5,49.5 83.5,49.5 83.5,49.5 83.5,49.5 " r="0" r2="0" shape="star" stroke-width="5" strokeWidth="5" strokecolor="none"/>
  <polygon cx="102.5" cy="79.5" fill="#000000" id="svg_6" orient="point" point="5" points="102.5,79.5 102.5,79.5 102.5,79.5 102.5,79.5 102.5,79.5 102.5,79.5 102.5,79.5 102.5,79.5 102.5,79.5 102.5,79.5 102.5,79.5 102.5,79.5 " r="0" r2="0" shape="star" stroke-width="5" strokeWidth="5" strokecolor="none"/>
  <polygon cx="109.5" cy="78.5" fill="#000000" id="svg_7" orient="point" point="5" points="109.5,78.5 109.5,78.5 109.5,78.5 109.5,78.5 109.5,78.5 109.5,78.5 109.5,78.5 109.5,78.5 109.5,78.5 109.5,78.5 109.5,78.5 109.5,78.5 " r="0" r2="0" shape="star" stroke-width="5" strokeWidth="5" strokecolor="none"/>
  <polygon cx="70.5" cy="67.5" fill="#000000" id="svg_10" orient="point" point="5" points="70.5,67.5 70.5,67.5 70.5,67.5 70.5,67.5 70.5,67.5 70.5,67.5 70.5,67.5 70.5,67.5 70.5,67.5 70.5,67.5 70.5,67.5 70.5,67.5 " r="0" r2="0" shape="star" stroke-width="5" strokeWidth="5" strokecolor="none" transform="translate(70.5 67.5) scale(1 1) translate(-70.5 -67.5)"/>
  <polygon cx="70.5" cy="67.5" fill="#000000" id="svg_11" orient="point" point="5" points="70.5,67.5 70.5,67.5 70.5,67.5 70.5,67.5 70.5,67.5 70.5,67.5 70.5,67.5 70.5,67.5 70.5,67.5 70.5,67.5 70.5,67.5 70.5,67.5 " r="0" r2="0" shape="star" stroke-width="5" strokeWidth="5" strokecolor="none"/>
  <text fill="#000000" font-family="serif" font-size="24" id="svg_12" stroke="#000000" stroke-dasharray="null" stroke-linecap="null" stroke-linejoin="null" stroke-width="0" text-anchor="middle" transform="matrix(2.98602 0 0 3.45877 -538.378 -449.166)" x="283.456469" xml:space="preserve" y="192.649376">KGCA</text>
 </g>
</svg>